<svg version="1.1" id="Layer_1" xmlns="http://www.w3.org/2000/svg" xmlns:xlink="http://www.w3.org/1999/xlink" x="0px" y="0px"
	 width="100%" viewBox="0 0 1000 100" enable-background="new 0 0 1000 100" xml:space="preserve">
<path fill="#FFFFFE" opacity="1.000000" stroke="none" 
	d="
M759.000000,101.000000 
	C506.057373,101.000000 253.614746,101.000000 1.086057,101.000000 
	C1.086057,67.731812 1.086057,34.463322 1.086057,1.097418 
	C334.333313,1.097418 667.666626,1.097418 1000.972412,1.097418 
	C1000.972412,34.385235 1000.972412,67.692635 1000.972412,101.000000 
	C920.463257,101.000000 839.981628,101.000000 759.000000,101.000000 
M503.147369,83.327370 
	C504.379883,82.848717 505.612396,82.370064 506.844940,81.891403 
	C506.545685,81.018005 506.246429,80.144615 505.947205,79.271217 
	C502.913879,80.187706 498.699402,80.171104 497.088043,82.210899 
	C493.505371,86.746155 499.996063,87.380005 502.000153,90.521210 
	C500.622925,90.397850 499.818054,90.144943 499.104980,90.303902 
	C498.013702,90.547165 496.985748,91.074417 495.930908,91.481140 
	C496.676483,92.343643 497.269989,93.635201 498.203918,93.966148 
	C499.538818,94.439163 501.367462,94.720650 502.542450,94.158493 
	C504.259308,93.337105 506.356293,91.919952 506.820312,90.328011 
	C507.166016,89.141853 505.314148,87.171082 504.180328,85.759064 
	C503.619507,85.060631 502.470245,84.834694 502.046448,83.926056 
	C502.183899,83.755844 502.321350,83.585632 503.147369,83.327370 
M438.936615,71.031075 
	C447.847351,71.031075 456.758057,71.031075 466.167297,71.031075 
	C466.167297,62.299553 466.167297,54.397964 466.167297,46.013481 
	C472.923035,46.013481 479.163483,46.013481 485.442230,46.013481 
	C485.442230,41.756981 485.442230,38.023640 485.442230,33.900993 
	C478.838135,33.900993 472.564575,33.900993 466.128174,33.900993 
	C466.128174,29.772497 466.128174,26.042353 466.128174,21.855885 
	C473.144440,21.855885 479.904236,21.855885 486.875793,21.855885 
	C486.875793,17.527763 486.875793,13.662543 486.875793,9.667122 
	C475.097107,9.667122 463.670685,9.667122 451.793976,9.667122 
	C451.793976,29.673090 451.793976,49.398457 451.793976,69.685699 
	C447.319519,65.293015 443.359924,61.405762 439.320557,57.440208 
	C442.146637,54.469425 444.833252,51.645267 447.669067,48.664253 
	C444.517700,45.652645 441.814545,43.069393 439.198975,40.569824 
	C435.973083,43.293964 433.224243,45.615292 429.669617,48.617050 
	C428.311462,46.823402 427.264893,45.315159 426.085846,43.918774 
	C424.843750,42.447655 423.475098,41.083385 422.249054,39.766243 
	C424.786652,37.746338 427.158295,36.155102 429.175201,34.198238 
	C435.565369,27.998255 435.570831,19.717909 429.348785,13.402546 
	C422.290985,6.238909 406.393097,6.571738 399.781006,14.150557 
	C396.266724,18.178621 394.949127,22.973480 396.781067,28.103056 
	C397.986145,31.477316 399.874115,34.607689 401.504028,37.945065 
	C398.420959,40.236767 395.034271,42.372997 392.102356,45.014053 
	C386.258545,50.278080 385.519226,58.091198 390.131653,64.425148 
	C393.843170,69.521927 399.359070,71.224205 405.313049,71.976135 
	C414.075623,73.082764 421.625671,70.097389 428.405518,64.682442 
	C430.482056,66.862686 432.227631,68.640999 433.890381,70.493668 
	C434.174988,70.810768 434.106018,71.445206 433.962372,72.853050 
	C433.962372,79.742920 433.962372,86.632797 433.962372,93.752129 
	C435.748840,93.752129 437.131989,93.752129 439.420593,93.752129 
	C438.940369,86.064888 438.475128,78.617912 438.936615,71.031075 
M547.864197,70.702805 
	C549.054077,68.678177 550.577209,66.776306 551.376221,64.607658 
	C554.822510,55.254498 558.056641,45.823132 561.368042,36.420246 
	C561.710327,36.477093 562.052612,36.533939 562.394897,36.590782 
	C563.336121,47.950260 564.277344,59.309738 565.220947,70.697327 
	C570.048767,70.697327 574.453369,70.697327 579.243408,70.697327 
	C577.397522,50.185555 575.582642,30.018457 573.725220,9.378304 
	C570.403870,9.378304 567.404114,9.665117 564.481873,9.311145 
	C560.089050,8.779044 558.100281,10.490062 556.660217,14.699823 
	C553.319580,24.465174 549.320068,34.005127 545.158081,44.744816 
	C541.542480,35.432823 538.362671,27.267782 535.201660,19.095488 
	C531.389648,9.240253 531.394287,9.413403 521.044739,9.285248 
	C517.313171,9.239039 516.236694,10.457645 515.999573,14.062119 
	C515.322327,24.360170 514.214783,34.629517 513.311523,44.913239 
	C512.560242,53.467106 511.858795,62.025352 511.119507,70.768829 
	C516.027588,70.768829 520.453979,70.768829 525.080200,70.768829 
	C526.064026,59.000931 527.029480,47.453403 527.994873,35.905880 
	C532.187378,45.594887 535.900574,55.327103 538.917847,65.270493 
	C540.301086,69.828957 542.530457,71.584251 547.864197,70.702805 
M365.543518,21.884144 
	C370.794647,21.884144 376.045746,21.884144 381.360046,21.884144 
	C381.360046,17.383398 381.360046,13.634817 381.360046,9.801353 
	C369.524658,9.801353 357.998596,9.801353 346.492615,9.801353 
	C346.492615,30.340263 346.492615,50.443256 346.492615,70.640579 
	C358.293213,70.640579 369.823364,70.640579 381.305054,70.640579 
	C381.305054,66.528854 381.305054,62.798645 381.305054,58.439884 
	C374.238068,58.439884 367.516357,58.439884 360.868744,58.439884 
	C360.868744,54.070950 360.868744,50.356506 360.868744,46.084145 
	C367.734497,46.084145 374.137787,46.084145 380.433990,46.084145 
	C380.433990,41.757641 380.433990,38.007427 380.433990,33.857094 
	C373.637360,33.857094 367.186066,33.857094 360.573242,33.857094 
	C360.573242,29.809780 360.573242,26.171379 360.573242,22.213932 
	C361.971008,22.098185 363.261108,21.991354 365.543518,21.884144 
M641.111328,56.807217 
	C640.117371,53.451035 642.430420,53.811794 644.456604,53.813770 
	C652.241028,53.821369 660.025452,53.816849 667.728516,53.816849 
	C669.364258,43.297890 664.183594,35.123074 654.555908,32.435654 
	C643.558899,29.366011 632.015137,34.764370 628.106628,44.804497 
	C624.430054,54.248852 628.679626,64.975822 638.021057,69.830742 
	C647.979492,75.006340 661.314392,71.663383 667.377380,62.234905 
	C663.058594,60.052193 659.621338,55.852226 653.855835,60.449486 
	C650.210266,63.356396 645.125366,61.511131 641.111328,56.807217 
M607.352600,39.499908 
	C607.352600,49.921299 607.352600,60.342686 607.352600,70.763885 
	C612.143677,70.763885 616.241699,70.763885 620.556885,70.763885 
	C620.556885,49.464539 620.556885,28.427864 620.556885,7.255949 
	C616.092163,7.255949 611.901123,7.255949 607.352844,7.255949 
	C607.352844,17.916256 607.352844,28.208076 607.352600,39.499908 
M674.590088,44.528557 
	C674.590088,53.270302 674.590088,62.012051 674.590088,70.723755 
	C679.321716,70.723755 683.405518,70.723755 687.265320,70.723755 
	C687.576782,70.312180 687.758972,70.183769 687.760254,70.053642 
	C687.815063,64.241829 687.816223,58.429302 687.904053,52.618073 
	C688.024231,44.667915 692.437561,41.516525 700.033386,43.897724 
	C700.908752,44.172150 701.778442,44.464817 702.752930,44.782307 
	C704.538757,41.045231 706.155945,37.661156 707.923462,33.962524 
	C700.490051,30.169552 694.239746,31.239262 688.413879,37.258423 
	C687.983826,35.472240 687.676392,34.195663 687.390869,33.009674 
	C683.046143,33.009674 679.089478,33.009674 674.590515,33.009674 
	C674.590515,36.646408 674.590515,40.093525 674.590088,44.528557 
M584.996094,54.498428 
	C584.996094,59.927113 584.996094,65.355797 584.996094,70.656906 
	C589.744263,70.656906 593.818359,70.656906 597.761719,70.656906 
	C597.761719,57.902409 597.761719,45.492290 597.761719,33.190605 
	C593.347595,33.190605 589.290466,33.190605 584.996094,33.190605 
	C584.996094,40.204075 584.996094,46.851486 584.996094,54.498428 
M475.299622,81.535538 
	C475.299622,78.081535 475.299622,74.627533 475.299622,71.003876 
	C473.463196,71.003876 472.074371,71.003876 470.170044,71.003876 
	C470.170044,74.201042 470.170044,77.087151 470.170044,79.850296 
	C468.014526,79.850296 466.338348,79.623833 464.746643,79.894356 
	C460.596527,80.599716 458.924652,83.515549 459.038116,87.405350 
	C459.154297,91.390038 461.262207,94.132675 465.390717,94.319962 
	C468.577087,94.464508 471.796722,93.877167 475.298889,93.590935 
	C475.298889,89.784348 475.298889,86.146759 475.299622,81.535538 
M584.358093,14.232960 
	C583.499878,21.366673 588.042847,26.662169 593.560120,24.302849 
	C596.119446,23.208395 599.114014,19.786415 599.238708,17.286331 
	C599.362854,14.796109 596.694397,11.164332 594.257751,9.779061 
	C590.414307,7.593987 586.938782,9.766515 584.358093,14.232960 
M552.919617,93.451813 
	C553.546692,92.469315 554.173828,91.486816 554.800903,90.504311 
	C553.626221,90.252907 552.461365,89.872223 551.274414,89.781456 
	C549.638062,89.656326 547.984985,89.750092 546.339111,89.750092 
	C546.355469,89.212921 546.371826,88.675751 546.388184,88.138580 
	C549.530762,87.955009 552.673340,87.771439 555.822693,87.587471 
	C555.167480,81.660828 552.808838,79.492760 547.911011,79.824112 
	C543.554260,80.118874 540.564331,83.543571 540.938293,87.810616 
	C541.294556,91.874817 544.755676,94.637680 549.348999,94.429848 
	C550.327087,94.385597 551.291138,94.031052 552.919617,93.451813 
M488.587830,94.147034 
	C493.487457,91.964279 494.439972,88.807289 492.681488,80.015236 
	C491.341400,80.144791 489.967529,80.277611 488.293610,80.439445 
	C488.293610,82.624107 488.623688,84.512428 488.193024,86.207443 
	C487.824097,87.659386 486.583954,88.889969 485.729156,90.218452 
	C484.833649,88.894669 483.509125,87.676430 483.150970,86.220459 
	C482.701080,84.391716 483.042664,82.368271 483.042664,80.316147 
	C481.888550,80.184326 481.254730,80.026993 480.631897,80.062447 
	C479.866180,80.106033 479.109619,80.310501 478.442017,80.428940 
	C477.216095,92.506401 478.800385,94.781181 488.587830,94.147034 
M449.842621,79.929619 
	C447.354401,80.087456 444.866180,80.245293 442.231964,80.412384 
	C442.231964,84.915466 442.231964,89.180817 442.231964,93.725304 
	C443.803406,93.725304 445.177155,93.725304 446.986542,93.725304 
	C446.986542,91.554764 446.630676,89.501534 447.101257,87.659431 
	C447.465485,86.233589 448.863983,85.071953 449.802704,83.792877 
	C450.564728,85.041290 451.742493,86.212669 451.991425,87.556152 
	C452.365479,89.574799 452.088776,91.714020 452.088776,93.762161 
	C454.090424,93.762161 455.356140,93.762161 457.036438,93.762161 
	C457.036438,91.230804 456.924652,88.930634 457.059998,86.645103 
	C457.331757,82.056610 455.307098,79.750938 449.842621,79.929619 
M563.949646,84.864571 
	C563.743103,84.635216 563.510437,84.423111 563.342163,84.168442 
	C563.269836,84.058891 563.288635,83.738098 563.337891,83.721031 
	C565.078003,83.118500 566.826721,82.540695 568.574280,81.959419 
	C568.390869,81.390984 568.207458,80.822548 568.024048,80.254105 
	C564.552795,79.777138 560.204407,78.310738 558.721375,82.728447 
	C558.071167,84.665474 561.058533,87.823631 562.232300,90.111839 
	C561.372192,90.327980 559.330017,90.841179 556.024902,91.671761 
	C562.110840,95.199791 567.227539,94.898026 568.563477,91.725044 
	C570.142029,87.975990 567.820496,86.195747 563.949646,84.864571 
M510.116760,78.256638 
	C509.596619,79.960480 508.657806,81.667717 508.671539,83.367241 
	C508.685913,85.143219 509.895081,86.881142 510.094208,88.689415 
	C510.665955,93.881096 512.814209,95.220230 518.351746,93.325500 
	C518.113342,92.413757 518.177185,91.053520 517.576355,90.624786 
	C514.105347,88.147919 513.316162,85.937859 517.502319,83.363983 
	C517.933838,83.098679 517.785828,81.190353 517.339417,80.343430 
	C516.408630,78.577477 515.098206,77.011658 513.331299,74.489326 
	C512.423584,75.325821 511.280701,76.378975 510.116760,78.256638 
M531.250122,82.865143 
	C530.819702,81.866341 530.406006,80.014816 529.956177,80.005997 
	C526.842407,79.944893 523.721130,80.267410 520.391846,80.480194 
	C520.391846,84.871597 520.391846,89.261299 520.391846,94.006912 
	C522.084717,93.895454 523.465149,93.804565 525.032898,93.701347 
	C525.207703,89.059677 523.343506,83.417793 531.250122,82.865143 
M537.363098,93.981216 
	C537.986084,89.478165 538.609070,84.975113 539.309753,79.910629 
	C536.618530,80.130951 535.237793,80.243980 533.623535,80.376137 
	C533.623535,84.268997 533.409729,87.778000 533.755798,91.230873 
	C533.857666,92.247124 535.544739,93.104515 537.363098,93.981216 
M533.995361,72.668495 
	C534.621582,74.145142 535.247742,75.621788 535.873962,77.098427 
	C536.905823,76.104637 537.937622,75.110847 538.969482,74.117065 
	C537.470215,73.460083 535.970947,72.803108 533.995361,72.668495 
z"/>
<path fill="#FF3535" opacity="1.000000" stroke="none" 
	d="
M434.200409,71.933044 
	C434.106018,71.445206 434.174988,70.810768 433.890381,70.493668 
	C432.227631,68.640999 430.482056,66.862686 428.405518,64.682442 
	C421.625671,70.097389 414.075623,73.082764 405.313049,71.976135 
	C399.359070,71.224205 393.843170,69.521927 390.131653,64.425148 
	C385.519226,58.091198 386.258545,50.278080 392.102356,45.014053 
	C395.034271,42.372997 398.420959,40.236767 401.504028,37.945065 
	C399.874115,34.607689 397.986145,31.477316 396.781067,28.103056 
	C394.949127,22.973480 396.266724,18.178621 399.781006,14.150557 
	C406.393097,6.571738 422.290985,6.238909 429.348785,13.402546 
	C435.570831,19.717909 435.565369,27.998255 429.175201,34.198238 
	C427.158295,36.155102 424.786652,37.746338 422.249054,39.766243 
	C423.475098,41.083385 424.843750,42.447655 426.085846,43.918774 
	C427.264893,45.315159 428.311462,46.823402 429.669617,48.617050 
	C433.224243,45.615292 435.973083,43.293964 439.198975,40.569824 
	C441.814545,43.069393 444.517700,45.652645 447.669067,48.664253 
	C444.833252,51.645267 442.146637,54.469425 439.320557,57.440208 
	C443.359924,61.405762 447.319519,65.293015 451.793976,69.685699 
	C451.793976,49.398457 451.793976,29.673090 451.793976,9.667122 
	C463.670685,9.667122 475.097107,9.667122 486.875793,9.667122 
	C486.875793,13.662543 486.875793,17.527763 486.875793,21.855885 
	C479.904236,21.855885 473.144440,21.855885 466.128174,21.855885 
	C466.128174,26.042353 466.128174,29.772497 466.128174,33.900993 
	C472.564575,33.900993 478.838135,33.900993 485.442230,33.900993 
	C485.442230,38.023640 485.442230,41.756981 485.442230,46.013481 
	C479.163483,46.013481 472.923035,46.013481 466.167297,46.013481 
	C466.167297,54.397964 466.167297,62.299553 466.167297,71.031075 
	C456.758057,71.031075 447.847351,71.031075 438.142151,71.139343 
	C436.298584,71.476089 435.249481,71.704575 434.200409,71.933044 
M410.041626,46.294121 
	C405.882324,46.503910 403.916992,49.350216 403.379181,52.854092 
	C403.152191,54.333096 404.477325,56.866669 405.825348,57.623535 
	C410.556213,60.279762 414.870209,58.516777 419.125458,55.368549 
	C416.131165,52.346283 413.362976,49.552204 410.041626,46.294121 
M410.271667,24.374445 
	C411.527069,26.911345 412.782471,29.448244 414.167969,32.248009 
	C418.422272,29.718287 422.482849,27.825548 421.380280,23.038055 
	C420.940918,21.130196 418.184082,18.881531 416.117340,18.419197 
	C412.647736,17.643021 410.839142,20.290588 410.271667,24.374445 
z"/>
<path fill="#FF3535" opacity="1.000000" stroke="none" 
	d="
M547.453613,70.718338 
	C542.530457,71.584251 540.301086,69.828957 538.917847,65.270493 
	C535.900574,55.327103 532.187378,45.594887 527.994873,35.905880 
	C527.029480,47.453403 526.064026,59.000931 525.080200,70.768829 
	C520.453979,70.768829 516.027588,70.768829 511.119507,70.768829 
	C511.858795,62.025352 512.560242,53.467106 513.311523,44.913239 
	C514.214783,34.629517 515.322327,24.360170 515.999573,14.062119 
	C516.236694,10.457645 517.313171,9.239039 521.044739,9.285248 
	C531.394287,9.413403 531.389648,9.240253 535.201660,19.095488 
	C538.362671,27.267782 541.542480,35.432823 545.158081,44.744816 
	C549.320068,34.005127 553.319580,24.465174 556.660217,14.699823 
	C558.100281,10.490062 560.089050,8.779044 564.481873,9.311145 
	C567.404114,9.665117 570.403870,9.378304 573.725220,9.378304 
	C575.582642,30.018457 577.397522,50.185555 579.243408,70.697327 
	C574.453369,70.697327 570.048767,70.697327 565.220947,70.697327 
	C564.277344,59.309738 563.336121,47.950260 562.394897,36.590782 
	C562.052612,36.533939 561.710327,36.477093 561.368042,36.420246 
	C558.056641,45.823132 554.822510,55.254498 551.376221,64.607658 
	C550.577209,66.776306 549.054077,68.678177 547.453613,70.718338 
z"/>
<path fill="#FF3838" opacity="1.000000" stroke="none" 
	d="
M365.047363,21.884335 
	C363.261108,21.991354 361.971008,22.098185 360.573242,22.213932 
	C360.573242,26.171379 360.573242,29.809780 360.573242,33.857094 
	C367.186066,33.857094 373.637360,33.857094 380.433990,33.857094 
	C380.433990,38.007427 380.433990,41.757641 380.433990,46.084145 
	C374.137787,46.084145 367.734497,46.084145 360.868744,46.084145 
	C360.868744,50.356506 360.868744,54.070950 360.868744,58.439884 
	C367.516357,58.439884 374.238068,58.439884 381.305054,58.439884 
	C381.305054,62.798645 381.305054,66.528854 381.305054,70.640579 
	C369.823364,70.640579 358.293213,70.640579 346.492615,70.640579 
	C346.492615,50.443256 346.492615,30.340263 346.492615,9.801353 
	C357.998596,9.801353 369.524658,9.801353 381.360046,9.801353 
	C381.360046,13.634817 381.360046,17.383398 381.360046,21.884144 
	C376.045746,21.884144 370.794647,21.884144 365.047363,21.884335 
z"/>
<path fill="#FF3737" opacity="1.000000" stroke="none" 
	d="
M641.284851,57.195347 
	C645.125366,61.511131 650.210266,63.356396 653.855835,60.449486 
	C659.621338,55.852226 663.058594,60.052193 667.377380,62.234905 
	C661.314392,71.663383 647.979492,75.006340 638.021057,69.830742 
	C628.679626,64.975822 624.430054,54.248852 628.106628,44.804497 
	C632.015137,34.764370 643.558899,29.366011 654.555908,32.435654 
	C664.183594,35.123074 669.364258,43.297890 667.728516,53.816849 
	C660.025452,53.816849 652.241028,53.821369 644.456604,53.813770 
	C642.430420,53.811794 640.117371,53.451035 641.284851,57.195347 
M653.475830,42.164627 
	C647.212158,38.528580 642.980774,39.829525 641.289795,46.302765 
	C643.686401,46.302765 645.975281,46.302765 648.264160,46.302765 
	C650.474854,46.302765 652.685547,46.302765 655.560059,46.302765 
	C654.761719,44.512573 654.378113,43.652462 653.475830,42.164627 
z"/>
<path fill="#FF3D3D" opacity="1.000000" stroke="none" 
	d="
M607.352722,38.999901 
	C607.352844,28.208076 607.352844,17.916256 607.352844,7.255949 
	C611.901123,7.255949 616.092163,7.255949 620.556885,7.255949 
	C620.556885,28.427864 620.556885,49.464539 620.556885,70.763885 
	C616.241699,70.763885 612.143677,70.763885 607.352600,70.763885 
	C607.352600,60.342686 607.352600,49.921299 607.352722,38.999901 
z"/>
<path fill="#FF3434" opacity="1.000000" stroke="none" 
	d="
M674.590332,44.034599 
	C674.590515,40.093525 674.590515,36.646408 674.590515,33.009674 
	C679.089478,33.009674 683.046143,33.009674 687.390869,33.009674 
	C687.676392,34.195663 687.983826,35.472240 688.413879,37.258423 
	C694.239746,31.239262 700.490051,30.169552 707.923462,33.962524 
	C706.155945,37.661156 704.538757,41.045231 702.752930,44.782307 
	C701.778442,44.464817 700.908752,44.172150 700.033386,43.897724 
	C692.437561,41.516525 688.024231,44.667915 687.904053,52.618073 
	C687.816223,58.429302 687.815063,64.241829 687.760254,70.053642 
	C687.758972,70.183769 687.576782,70.312180 687.265320,70.723755 
	C683.405518,70.723755 679.321716,70.723755 674.590088,70.723755 
	C674.590088,62.012051 674.590088,53.270302 674.590332,44.034599 
z"/>
<path fill="#FF3131" opacity="1.000000" stroke="none" 
	d="
M584.996094,53.998665 
	C584.996094,46.851486 584.996094,40.204075 584.996094,33.190605 
	C589.290466,33.190605 593.347595,33.190605 597.761719,33.190605 
	C597.761719,45.492290 597.761719,57.902409 597.761719,70.656906 
	C593.818359,70.656906 589.744263,70.656906 584.996094,70.656906 
	C584.996094,65.355797 584.996094,59.927113 584.996094,53.998665 
z"/>
<path fill="#FFFC0D" opacity="1.000000" stroke="none" 
	d="
M475.299255,82.022354 
	C475.298889,86.146759 475.298889,89.784348 475.298889,93.590935 
	C471.796722,93.877167 468.577087,94.464508 465.390717,94.319962 
	C461.262207,94.132675 459.154297,91.390038 459.038116,87.405350 
	C458.924652,83.515549 460.596527,80.599716 464.746643,79.894356 
	C466.338348,79.623833 468.014526,79.850296 470.170044,79.850296 
	C470.170044,77.087151 470.170044,74.201042 470.170044,71.003876 
	C472.074371,71.003876 473.463196,71.003876 475.299622,71.003876 
	C475.299622,74.627533 475.299622,78.081535 475.299255,82.022354 
M470.295685,87.439720 
	C469.232300,86.286629 468.311279,84.890732 467.016815,84.131660 
	C466.639313,83.910286 464.652344,85.357971 464.395081,86.308960 
	C464.136810,87.263550 465.142456,89.532196 465.548004,89.521210 
	C467.073364,89.479919 468.579926,88.743538 470.295685,87.439720 
z"/>
<path fill="#FF3838" opacity="1.000000" stroke="none" 
	d="
M584.545898,13.888811 
	C586.938782,9.766515 590.414307,7.593987 594.257751,9.779061 
	C596.694397,11.164332 599.362854,14.796109 599.238708,17.286331 
	C599.114014,19.786415 596.119446,23.208395 593.560120,24.302849 
	C588.042847,26.662169 583.499878,21.366673 584.545898,13.888811 
z"/>
<path fill="#FFFC10" opacity="1.000000" stroke="none" 
	d="
M552.590637,93.635635 
	C551.291138,94.031052 550.327087,94.385597 549.348999,94.429848 
	C544.755676,94.637680 541.294556,91.874817 540.938293,87.810616 
	C540.564331,83.543571 543.554260,80.118874 547.911011,79.824112 
	C552.808838,79.492760 555.167480,81.660828 555.822693,87.587471 
	C552.673340,87.771439 549.530762,87.955009 546.388184,88.138580 
	C546.371826,88.675751 546.355469,89.212921 546.339111,89.750092 
	C547.984985,89.750092 549.638062,89.656326 551.274414,89.781456 
	C552.461365,89.872223 553.626221,90.252907 554.800903,90.504318 
	C554.173828,91.486816 553.546692,92.469315 552.590637,93.635635 
z"/>
<path fill="#FFFC11" opacity="1.000000" stroke="none" 
	d="
M488.204987,94.217102 
	C478.800385,94.781181 477.216095,92.506401 478.442017,80.428940 
	C479.109619,80.310501 479.866180,80.106033 480.631897,80.062447 
	C481.254730,80.026993 481.888550,80.184326 483.042664,80.316147 
	C483.042664,82.368271 482.701080,84.391716 483.150970,86.220459 
	C483.509125,87.676430 484.833649,88.894669 485.729156,90.218452 
	C486.583954,88.889969 487.824097,87.659386 488.193024,86.207443 
	C488.623688,84.512428 488.293610,82.624107 488.293610,80.439445 
	C489.967529,80.277611 491.341400,80.144791 492.681488,80.015236 
	C494.439972,88.807289 493.487457,91.964279 488.204987,94.217102 
z"/>
<path fill="#FFFC0C" opacity="1.000000" stroke="none" 
	d="
M450.255005,79.883148 
	C455.307098,79.750938 457.331757,82.056610 457.059998,86.645103 
	C456.924652,88.930634 457.036438,91.230804 457.036438,93.762161 
	C455.356140,93.762161 454.090424,93.762161 452.088776,93.762161 
	C452.088776,91.714020 452.365479,89.574799 451.991425,87.556152 
	C451.742493,86.212669 450.564728,85.041290 449.802704,83.792877 
	C448.863983,85.071953 447.465485,86.233589 447.101257,87.659431 
	C446.630676,89.501534 446.986542,91.554764 446.986542,93.725304 
	C445.177155,93.725304 443.803406,93.725304 442.231964,93.725304 
	C442.231964,89.180817 442.231964,84.915466 442.231964,80.412384 
	C444.866180,80.245293 447.354401,80.087456 450.255005,79.883148 
z"/>
<path fill="#FFFC10" opacity="1.000000" stroke="none" 
	d="
M501.587219,84.394989 
	C502.470245,84.834694 503.619507,85.060631 504.180328,85.759064 
	C505.314148,87.171082 507.166016,89.141853 506.820312,90.328011 
	C506.356293,91.919952 504.259308,93.337105 502.542450,94.158493 
	C501.367462,94.720650 499.538818,94.439163 498.203918,93.966148 
	C497.269989,93.635201 496.676483,92.343643 495.930908,91.481133 
	C496.985748,91.074417 498.013702,90.547165 499.104980,90.303902 
	C499.818054,90.144943 500.622925,90.397850 502.000153,90.521210 
	C499.996063,87.380005 493.505371,86.746155 497.088043,82.210899 
	C498.699402,80.171104 502.913879,80.187706 505.947205,79.271217 
	C506.246429,80.144615 506.545685,81.018005 506.844940,81.891403 
	C505.612396,82.370064 504.379883,82.848717 502.597443,83.279404 
	C501.894073,83.619286 501.740662,84.007133 501.587219,84.394989 
z"/>
<path fill="#FFFC0D" opacity="1.000000" stroke="none" 
	d="
M564.295959,84.971275 
	C567.820496,86.195747 570.142029,87.975990 568.563477,91.725044 
	C567.227539,94.898026 562.110840,95.199791 556.024902,91.671761 
	C559.330017,90.841179 561.372192,90.327980 562.232300,90.111839 
	C561.058533,87.823631 558.071167,84.665474 558.721375,82.728447 
	C560.204407,78.310738 564.552795,79.777138 568.024048,80.254105 
	C568.207458,80.822548 568.390869,81.390984 568.574280,81.959419 
	C566.826721,82.540695 565.078003,83.118500 563.337891,83.721031 
	C563.288635,83.738098 563.269836,84.058891 563.342163,84.168442 
	C563.510437,84.423111 563.743103,84.635216 564.295959,84.971275 
z"/>
<path fill="#FFFC0E" opacity="1.000000" stroke="none" 
	d="
M510.127319,77.844391 
	C511.280701,76.378975 512.423584,75.325821 513.331299,74.489326 
	C515.098206,77.011658 516.408630,78.577477 517.339417,80.343430 
	C517.785828,81.190353 517.933838,83.098679 517.502319,83.363983 
	C513.316162,85.937859 514.105347,88.147919 517.576355,90.624786 
	C518.177185,91.053520 518.113342,92.413757 518.351746,93.325500 
	C512.814209,95.220230 510.665955,93.881096 510.094208,88.689415 
	C509.895081,86.881142 508.685913,85.143219 508.671539,83.367241 
	C508.657806,81.667717 509.596619,79.960480 510.127319,77.844391 
z"/>
<path fill="#FFFC02" opacity="1.000000" stroke="none" 
	d="
M434.081390,72.393051 
	C435.249481,71.704575 436.298584,71.476089 437.678772,71.209267 
	C438.475128,78.617912 438.940369,86.064888 439.420593,93.752129 
	C437.131989,93.752129 435.748840,93.752129 433.962372,93.752129 
	C433.962372,86.632797 433.962372,79.742920 434.081390,72.393051 
z"/>
<path fill="#FFFC0C" opacity="1.000000" stroke="none" 
	d="
M531.047302,83.223038 
	C523.343506,83.417793 525.207703,89.059677 525.032898,93.701347 
	C523.465149,93.804565 522.084717,93.895454 520.391846,94.006912 
	C520.391846,89.261299 520.391846,84.871597 520.391846,80.480194 
	C523.721130,80.267410 526.842407,79.944893 529.956177,80.005997 
	C530.406006,80.014816 530.819702,81.866341 531.047302,83.223038 
z"/>
<path fill="#FFFC19" opacity="1.000000" stroke="none" 
	d="
M536.934204,94.007965 
	C535.544739,93.104515 533.857666,92.247124 533.755798,91.230873 
	C533.409729,87.778000 533.623535,84.268997 533.623535,80.376137 
	C535.237793,80.243980 536.618530,80.130951 539.309753,79.910629 
	C538.609070,84.975113 537.986084,89.478165 536.934204,94.007965 
z"/>
<path fill="#FFFC13" opacity="1.000000" stroke="none" 
	d="
M534.233521,72.407310 
	C535.970947,72.803108 537.470215,73.460083 538.969482,74.117065 
	C537.937622,75.110847 536.905823,76.104637 535.873962,77.098434 
	C535.247742,75.621788 534.621582,74.145142 534.233521,72.407310 
z"/>
<path fill="#FFF8F8" opacity="1.000000" stroke="none" 
	d="
M410.318207,46.526123 
	C413.362976,49.552204 416.131165,52.346283 419.125458,55.368549 
	C414.870209,58.516777 410.556213,60.279762 405.825348,57.623535 
	C404.477325,56.866669 403.152191,54.333096 403.379181,52.854092 
	C403.916992,49.350216 405.882324,46.503910 410.318207,46.526123 
z"/>
<path fill="#FFF1F1" opacity="1.000000" stroke="none" 
	d="
M410.282227,23.999622 
	C410.839142,20.290588 412.647736,17.643021 416.117340,18.419197 
	C418.184082,18.881531 420.940918,21.130196 421.380280,23.038055 
	C422.482849,27.825548 418.422272,29.718287 414.167969,32.248009 
	C412.782471,29.448244 411.527069,26.911345 410.282227,23.999622 
z"/>
<path fill="#FFF3F3" opacity="1.000000" stroke="none" 
	d="
M653.735168,42.478485 
	C654.378113,43.652462 654.761719,44.512573 655.560059,46.302765 
	C652.685547,46.302765 650.474854,46.302765 648.264160,46.302765 
	C645.975281,46.302765 643.686401,46.302765 641.289795,46.302765 
	C642.980774,39.829525 647.212158,38.528580 653.735168,42.478485 
z"/>
<path fill="#FFFFEF" opacity="1.000000" stroke="none" 
	d="
M470.194580,87.853622 
	C468.579926,88.743538 467.073364,89.479919 465.548004,89.521210 
	C465.142456,89.532196 464.136810,87.263550 464.395081,86.308960 
	C464.652344,85.357971 466.639313,83.910286 467.016815,84.131660 
	C468.311279,84.890732 469.232300,86.286629 470.194580,87.853622 
z"/>
<path fill="#FFFFFE" opacity="1.000000" stroke="none" 
	d="
M501.816833,84.160522 
	C501.740662,84.007133 501.894073,83.619286 502.253174,83.323425 
	C502.321350,83.585632 502.183899,83.755844 501.816833,84.160522 
z"/>
</svg>